<svg xmlns="http://www.w3.org/2000/svg" width="256" height="256" viewBox="0 0 256 256"><title>logo white</title><g id="26ce56ec-6467-427b-9b3b-9aafdf55328c" data-name="Layer 1"><rect width="256" height="256" fill="#fff"/><path d="M134.89,117.5H114.94V77.73l.66-26.64h-.26L93.94,117.5H75.7L54.31,51.09h-.26l.65,26.64V117.5H34.62V30.88H66.78L80.43,75l4.85,18.37h.26l5-18.24,13.52-44.23h30.84Z"/><path d="M220.07,100.05V117.5h-66V30.88h22.58v69.17Z"/><path d="M122.62,139.55a46.18,46.18,0,0,1,16.21,11.94l-12.73,14.7a27.93,27.93,0,0,0-10.18-9.64,29.49,29.49,0,0,0-14-3.09q-6.83,0-10.5,2.36a7.21,7.21,0,0,0-3.68,6.3q0,3.28,3.88,5.32t13.18,3.74q18,3.28,25.66,9.58t7.68,17.72a22.5,22.5,0,0,1-4.72,14.3A29.23,29.23,0,0,1,120.39,222a53,53,0,0,1-18.84,3.15q-14.7,0-23.88-3.61a41.29,41.29,0,0,1-15.88-11.09l11.55-15.75a29.24,29.24,0,0,0,11.55,10,37.69,37.69,0,0,0,15.48,2.88q7.22,0,10.83-2a6.38,6.38,0,0,0,3.61-5.84q0-3-3.87-4.92T98,191.13a96.67,96.67,0,0,1-18.44-5.32,27.06,27.06,0,0,1-11.29-8.33q-4-5.25-4-13.39a25.24,25.24,0,0,1,4.4-14.57,28.78,28.78,0,0,1,12.86-10,50.86,50.86,0,0,1,20-3.61Q113.9,135.87,122.62,139.55Z"/><path d="M221.38,206.35v17.46H152.21V137.19h67.46v17.45H174.79v17.59h35.69v16.4H174.79v17.72Z"/><circle cx="44.93" cy="214.81" r="10.31"/></g></svg>